<svg id="Layer_1" data-name="Layer 1" xmlns="http://www.w3.org/2000/svg" viewBox="0 0 434 230"><defs><style>.cls-1{fill:#fff;}</style></defs><title>Logo-Red_Hat-Summit-A-White-RGB</title><path class="cls-1" d="M169.88,59.68a5.39,5.39,0,0,0-5.38,4.11h10.81A5.72,5.72,0,0,0,169.88,59.68Z"/><path class="cls-1" d="M266.05,71.81c0,1.61,1.51,2.59,4.06,2.59a10,10,0,0,0,4.94-1.22V69.85a20.08,20.08,0,0,0-4.7-.58C267.76,69.27,266.05,70.1,266.05,71.81Z"/><path class="cls-1" d="M200.21,73.13a7.58,7.58,0,0,0,5.47-2V62a8,8,0,0,0-5.47-2,6.56,6.56,0,1,0,0,13.11Z"/><path class="cls-1" d="M2,3V194.62H185.17l32.42,32.43L250,194.62H432V3ZM285.44,53.66h5.23V47l7.93-1.71v8.36h7.24v6.61H298.6V70.1c0,2.35.93,3.13,3.42,3.13a11.56,11.56,0,0,0,3.57-.54V79.1a24.33,24.33,0,0,1-5.53.78c-6.06,0-9.39-2.69-9.39-8.22V60.27h-5.23Zm-14.77,6.12a21.17,21.17,0,0,0-7.83,2L260,56a28.77,28.77,0,0,1,12.08-2.84c7.1,0,11.35,3.48,11.35,9.79V79.54h-7.82V78a12.14,12.14,0,0,1-7.15,2c-5.77,0-9.39-3.47-9.39-8,0-5,4-7.78,10.67-7.78a23,23,0,0,1,5.87.73V63.64C275.61,61.05,273.94,59.78,270.67,59.78ZM225.47,45.3h8.41V58.46H248V45.3h8.41V79.54H248V66.14H233.88v13.4h-8.41Zm-26.39,8a13.16,13.16,0,0,1,6.6,1.71V45.3l7.93-1.71v36h-7.83V77.63a11.63,11.63,0,0,1-6.94,2.25,13.28,13.28,0,1,1,.24-26.56ZM72.8,153.2a45.23,45.23,0,0,1-28.72-10.63l8.73-11.36C60.53,137.48,66.62,140,74,140c7.18,0,11.45-2.27,11.45-6.18,0-3.55-2.45-5.27-8.81-6.36l-14-2.46c-10.36-1.81-16.08-8.08-16.08-17.44,0-12.36,9.81-19.81,26.08-19.81,9.45,0,19.72,3.45,26.71,9.08L91.06,108.4c-6.72-5.18-12.81-7.54-19.53-7.54-6.36,0-10.27,2.09-10.27,5.54,0,3.19,2.18,4.73,7.54,5.64L82,114.22c12.26,2,18.72,8.27,18.72,18.08C100.7,145.21,90.06,153.2,72.8,153.2Zm80.78-.91H138.86V149A20.85,20.85,0,0,1,126,153.2c-11.27,0-19.17-8-19.17-19.35V104.22h14.72v27.63c0,5.27,3.45,8.72,8.72,8.72a10.6,10.6,0,0,0,8.63-3.82V104.22h14.72Zm-6.15-72.75L141,67.07h-6.41V79.54h-8.41V45.3h17.51c7.24,0,12.08,4.74,12.08,10.91a10.35,10.35,0,0,1-6.45,9.63l7.53,13.7Zm9.09-12.91A13.3,13.3,0,0,1,170,53.22c7.53,0,13.06,5.92,13.06,14.14v2H164.64a6.7,6.7,0,0,0,6.36,4.1,7,7,0,0,0,5.19-2l5.23,4.64A15.51,15.51,0,0,1,170.61,80C162.69,80,156.52,74.16,156.52,66.63Zm81.39,85.66H223.19V124.67c0-5.27-3.09-8.72-7.81-8.72a9.81,9.81,0,0,0-7.91,3.63c.09,1,.18,2,.18,3.09v29.62H192.93V124.67c0-5.27-3.09-8.72-7.81-8.72a9.46,9.46,0,0,0-7.73,3.45v32.89H162.67V104.22h14.72v3.09a19.14,19.14,0,0,1,12-4A17.59,17.59,0,0,1,203.65,110a20.57,20.57,0,0,1,15.64-6.63c10.9,0,18.62,8,18.62,19.35Zm84,0H307.16V124.67c0-5.27-3.09-8.72-7.82-8.72a9.79,9.79,0,0,0-7.9,3.63c.09,1,.18,2,.18,3.09v29.62H276.9V124.67c0-5.27-3.09-8.72-7.82-8.72a9.44,9.44,0,0,0-7.72,3.45v32.89H246.64V104.22h14.72v3.09a19.1,19.1,0,0,1,12-4A17.61,17.61,0,0,1,287.62,110a20.56,20.56,0,0,1,15.63-6.63c10.91,0,18.63,8,18.63,19.35Zm23.45,0H330.61V104.22h14.72ZM338,99.77a8.09,8.09,0,1,1,8.08-8.09A8.1,8.1,0,0,1,338,99.77Zm51.43,16.72H376v18.27c0,4.27,1.64,5.81,6.36,5.81a21.38,21.38,0,0,0,6.64-1v11.91a44.25,44.25,0,0,1-10.27,1.45c-11.54,0-17.45-5.18-17.45-15.27V116.49h-9.72V104.22h9.72V91.87L376,88.69v15.53H389.4Z"/><path class="cls-1" d="M142.88,52.49h-8.32v7.73h8.32c2.79,0,4.35-1.76,4.35-3.87S145.67,52.49,142.88,52.49Z"/></svg>