<svg xmlns="http://www.w3.org/2000/svg" viewBox="0 0 1144.49 148"><defs><style>.cls-1{fill:#fff;}.cls-2{fill:#e00;}</style></defs><title>Logo-Red_Hat-IBM-A-Reverse-RGB</title><g id="Lockup_A" data-name="Lockup A"><path id="Divider" class="cls-1" d="M699.84,146a2.25,2.25,0,0,1-2.25-2.25V4.25a2.25,2.25,0,0,1,4.5,0v139.5A2.25,2.25,0,0,1,699.84,146Z"/><g id="Red_Hat_Logo" data-name="Red Hat Logo"><path class="cls-2" d="M129,85c12.5,0,30.61-2.58,30.61-17.46a14,14,0,0,0-.31-3.42l-7.45-32.36c-1.72-7.12-3.23-10.35-15.74-16.6C126.38,10.19,105.26,2,99,2c-5.82,0-7.55,7.54-14.45,7.54-6.68,0-11.64-5.6-17.89-5.6-6,0-9.92,4.09-12.93,12.5,0,0-8.41,23.72-9.49,27.16A6.43,6.43,0,0,0,44,45.54C44,54.76,80.32,85,129,85m32.55-11.42c1.73,8.19,1.73,9.05,1.73,10.13,0,14-15.74,21.77-36.43,21.77C80,105.47,39.08,78.1,39.08,60a18.28,18.28,0,0,1,1.51-7.33C23.77,53.52,2,56.54,2,75.72,2,107.2,76.59,146,135.65,146c45.27,0,56.7-20.48,56.7-36.65,0-12.72-11-27.16-30.83-35.78"/><path d="M161.52,73.57c1.73,8.19,1.73,9.05,1.73,10.13,0,14-15.74,21.77-36.43,21.77C80,105.47,39.08,78.1,39.08,60a18.28,18.28,0,0,1,1.51-7.33l3.66-9.06A6.43,6.43,0,0,0,44,45.54C44,54.76,80.32,85,129,85c12.5,0,30.61-2.58,30.61-17.46a14,14,0,0,0-.31-3.42Z"/><path class="cls-1" d="M581.24,94.3c0,11.89,7.15,17.67,20.19,17.67a52,52,0,0,0,11.88-1.68V96.51a24.78,24.78,0,0,1-7.67,1.16c-5.37,0-7.36-1.68-7.36-6.73V69.8h15.56V55.6H598.28v-18l-17,3.68V55.6H570V69.8h11.26Zm-53,.32c0-3.68,3.68-5.47,9.26-5.47a43,43,0,0,1,10.09,1.26v7.15A21.45,21.45,0,0,1,537,100.19c-5.47,0-8.73-2.1-8.73-5.57m5.2,17.56c6,0,10.83-1.26,15.36-4.31v3.37h16.82V75.58c0-13.56-9.15-21-24.4-21-8.51,0-16.93,2-26,6.1l6.1,12.52c6.52-2.74,12-4.42,16.82-4.42,7,0,10.63,2.73,10.63,8.31v2.73a49.53,49.53,0,0,0-12.62-1.58c-14.31,0-22.93,6-22.93,16.73,0,9.78,7.78,17.24,20.19,17.24m-92.44-.94h18.09V82.42h30.29v28.82h18.08V37.62H489.43V65.91H459.14V37.62H441.05ZM372.12,83.37c0-8,6.31-14.1,14.62-14.1a17.22,17.22,0,0,1,11.78,4.32V93a16.36,16.36,0,0,1-11.78,4.42c-8.21,0-14.62-6.1-14.62-14.09m26.61,27.87h16.82V33.94l-17,3.68V58.55a28.3,28.3,0,0,0-14.2-3.68c-16.2,0-28.92,12.51-28.92,28.5A28.25,28.25,0,0,0,383.79,112a25.13,25.13,0,0,0,14.94-4.83Zm-77.2-42.7c5.37,0,9.89,3.47,11.68,8.83H310c1.68-5.57,5.89-8.83,11.56-8.83M292.82,83.47c0,16.2,13.26,28.82,30.29,28.82,9.36,0,16.2-2.53,23.24-8.42l-11.25-10c-2.63,2.74-6.52,4.21-11.15,4.21a14.38,14.38,0,0,1-13.67-8.83h39.65V85.05c0-17.67-11.88-30.39-28.08-30.39a28.58,28.58,0,0,0-29,28.81M263.48,53.08c6,0,9.36,3.78,9.36,8.31s-3.36,8.31-9.36,8.31H245.6V53.08Zm-36,58.16H245.6V84.42h13.78l13.88,26.82h20.2l-16.2-29.45a22.27,22.27,0,0,0,13.88-20.72c0-13.25-10.41-23.45-26-23.45H227.52Z"/></g><polygon class="cls-1" points="1099.42 19.56 1047.22 19.56 1050.43 10.5 1099.42 10.5 1099.42 19.56 1099.42 19.56"/><path class="cls-1" d="M960.28,10.5h48.46l3.17,9.08s-51.63,0-51.63,0,0-9.08,0-9.08Z"/><path class="cls-1" d="M921.78,10.5a34.67,34.67,0,0,1,20.85,9.07s-87.85,0-87.85,0V10.5Z"/><polygon class="cls-1" points="846.88 19.55 785.85 19.55 785.85 10.5 846.88 10.5 846.88 19.55 846.88 19.55"/><path class="cls-1" d="M1099.42,36.55h-58.18s3.17-9,3.15-9h55v9Z"/><polygon class="cls-1" points="1017.91 36.55 960.28 36.55 960.28 27.53 1014.74 27.53 1017.91 36.55 1017.91 36.55"/><path class="cls-1" d="M949.47,27.53c1.15,3,2.53,5.52,2.53,9H854.8v-9Z"/><polygon class="cls-1" points="846.88 36.55 785.85 36.55 785.85 27.53 846.88 27.53 846.88 36.55 846.88 36.55"/><polygon class="cls-1" points="1035.29 53.59 1038.48 44.53 1082.15 44.55 1082.15 53.57 1035.29 53.59 1035.29 53.59"/><polygon class="cls-1" points="1020.71 44.53 1023.88 53.59 977.46 53.59 977.46 44.53 1020.71 44.53 1020.71 44.53"/><path class="cls-1" d="M952.77,44.53a30,30,0,0,1-1.28,9.06H924.87V44.53Z"/><polygon class="cls-1" points="829.09 53.59 802.86 53.59 802.86 44.57 829.09 44.57 829.09 53.59 829.09 53.59"/><polygon class="cls-1" points="898.64 53.59 872.46 53.59 872.46 44.53 898.64 44.53 898.64 53.59 898.64 53.59"/><path class="cls-1" d="M1003.25,63.36v6.87H977.46v-9h49.15l3.05,8.4s2.94-8.42,3-8.4h49.52v9h-25.65s0-6.87,0-6.87l-2.38,6.87h-48.47l-2.37-6.86Z"/><path class="cls-1" d="M872.46,61.21h75.18a34.17,34.17,0,0,1-7.46,9H872.46v-9Z"/><polygon class="cls-1" points="829.09 70.23 802.86 70.23 802.86 61.21 829.09 61.21 829.09 70.23 829.09 70.23"/><polygon class="cls-1" points="1082.14 87.24 1056.49 87.24 1056.49 78.22 1082.14 78.22 1082.14 87.24 1082.14 87.24"/><path class="cls-1" d="M1003.25,78.22H977.46v9h25.79s0-9,0-9Z"/><path class="cls-1" d="M1051.29,78.22c-.1,0-3,9-3.13,9H1011.6s-3.21-9-3.21-9Z"/><path class="cls-1" d="M872.45,78.22H940a44,44,0,0,1,8.08,9H872.46v-9Z"/><path class="cls-1" d="M829.09,87.24v-9H802.9v9Z"/><polygon class="cls-1" points="1082.14 104.22 1056.49 104.22 1056.49 95.2 1082.14 95.2 1082.14 104.22 1082.14 104.22"/><polygon class="cls-1" points="1003.25 104.21 977.45 104.21 977.45 95.2 1003.25 95.2 1003.25 104.21 1003.25 104.21"/><path class="cls-1" d="M1042.16,104.27s3.18-9.07,3.22-9.07H1014.3c-.06,0,3.18,9,3.18,9s24.68.08,24.68,0Z"/><path class="cls-1" d="M872.46,104.21s0-9,0-9H899s0,9,0,9Z"/><path class="cls-1" d="M951.82,95.2c1.29,2.73,1.41,6,1.68,9.07H925.35V95.2Z"/><polygon class="cls-1" points="829.09 104.21 802.9 104.21 802.9 95.2 829.09 95.2 829.09 104.21 829.09 104.21"/><polygon class="cls-1" points="1099.42 120.87 1056.49 120.87 1056.49 111.86 1099.42 111.86 1099.42 120.87 1099.42 120.87"/><polygon class="cls-1" points="1003.25 120.87 960.26 120.87 960.26 111.86 1003.25 111.86 1003.25 120.87 1003.25 120.87"/><polygon class="cls-1" points="1036.38 120.87 1023.28 120.87 1020.14 111.86 1039.42 111.86 1036.38 120.87 1036.38 120.87"/><path class="cls-1" d="M785.85,111.84v9h61s0-9,0-9l-61,0Z"/><path class="cls-1" d="M952.38,111.84c-.64,3-1.22,6.61-3.39,9H854.8v-9Z"/><polygon class="cls-1" points="1030.46 137.89 1029.24 137.89 1026.18 128.85 1033.6 128.85 1030.46 137.89 1030.46 137.89"/><polygon class="cls-1" points="1099.42 137.91 1056.49 137.91 1056.49 128.85 1099.42 128.85 1099.42 137.91 1099.42 137.91"/><path class="cls-1" d="M854.78,137.89v-9l88.36,0a33.35,33.35,0,0,1-22.77,9l-65.57,0"/><polygon class="cls-1" points="1003.25 137.91 960.26 137.91 960.26 128.85 1003.25 128.85 1003.25 137.91 1003.25 137.91"/><path class="cls-1" d="M846.83,128.89s0,9,0,9-61,0-61,0,0-9,0-9,60.95.06,61,0Z"/><path class="cls-1" d="M1129.77,124.76c.51,0,1,0,1.43-.05a3.53,3.53,0,0,0,1.22-.29,1.76,1.76,0,0,0,.83-.72,2.4,2.4,0,0,0,.32-1.36,2.17,2.17,0,0,0-.28-1.18,1.88,1.88,0,0,0-.73-.67,3.05,3.05,0,0,0-1-.31,7.4,7.4,0,0,0-1.14-.09h-3v4.67Zm1-6.49a6,6,0,0,1,3.86,1,3.86,3.86,0,0,1,1.25,3.13,3.57,3.57,0,0,1-1.11,2.89,4.92,4.92,0,0,1-2.74,1.08l4.17,6.48h-2.42l-4-6.29h-2.39v6.29h-2.29V118.27Zm-10.28,11.54a10.58,10.58,0,0,0,2.17,3.4,10,10,0,0,0,7.34,3.08,9.88,9.88,0,0,0,4-.82,10.23,10.23,0,0,0,5.4-5.66,11.42,11.42,0,0,0,.78-4.27,11.14,11.14,0,0,0-.78-4.18,10.33,10.33,0,0,0-2.17-3.37,10.45,10.45,0,0,0-3.23-2.24,10,10,0,0,0-4-.82,10.22,10.22,0,0,0-4.08.82,10.35,10.35,0,0,0-3.26,2.24,10.67,10.67,0,0,0-2.17,3.37,11.34,11.34,0,0,0-.78,4.18,11.62,11.62,0,0,0,.78,4.27Zm-2.07-9.17a12.4,12.4,0,0,1,6.73-6.57,12.37,12.37,0,0,1,4.85-.95,12.24,12.24,0,0,1,4.83.95,12.44,12.44,0,0,1,6.68,6.57,12.22,12.22,0,0,1,1,4.92,12.43,12.43,0,0,1-1,5,12.75,12.75,0,0,1-2.71,4,12.15,12.15,0,0,1-4,2.62,12.41,12.41,0,0,1-4.83.94,12.55,12.55,0,0,1-4.85-.94,12.33,12.33,0,0,1-4-2.62,12.78,12.78,0,0,1-2.72-4,12.43,12.43,0,0,1-1-5,12.22,12.22,0,0,1,1-4.92Z"/></g></svg>